<?xml version="1.0" standalone="no"?><!DOCTYPE svg PUBLIC "-//W3C//DTD SVG 1.1//EN" "http://www.w3.org/Graphics/SVG/1.1/DTD/svg11.dtd"><svg t="1767775694357" class="icon" viewBox="0 0 1024 1024" version="1.1" xmlns="http://www.w3.org/2000/svg" p-id="10752" xmlns:xlink="http://www.w3.org/1999/xlink" width="200" height="200"><path d="M150.119 632.627h80.418v80.418h-80.418zM230.537 552.209h80.418v80.418h-80.418z" p-id="10753" fill="#636262"></path><path d="M310.955 471.791h80.418v80.418h-80.418zM310.955 632.627h80.418v80.418h-80.418zM391.373 391.373h80.418v80.418h-80.418zM391.373 552.209h80.418v80.418h-80.418zM471.791 310.955h80.418v80.418h-80.418zM471.791 471.791h80.418v80.418h-80.418zM471.791 632.627h80.418v80.418h-80.418zM552.209 391.373h80.418v80.418h-80.418z" p-id="10754" fill="#636262"></path><path d="M552.209 552.209h80.418v80.418h-80.418zM632.627 471.791h80.418v80.418h-80.418zM632.627 632.627h80.418v80.418h-80.418zM713.045 552.209h80.418v80.418h-80.418zM793.463 632.627h80.418v80.418h-80.418zM80.418 80.418H300V0H0v300h80.418zM943.582 0H724v80.417h219.582V300H1024V0zM943.582 943.582H724V1024h300V724h-80.418zM80.418 724H0v300h300v-80.418H80.418z" p-id="10755" fill="#636262"></path></svg>