<?xml version="1.0" standalone="no"?><!DOCTYPE svg PUBLIC "-//W3C//DTD SVG 1.1//EN" "http://www.w3.org/Graphics/SVG/1.1/DTD/svg11.dtd"><svg t="1767960305478" class="icon" viewBox="0 0 1024 1024" version="1.1" xmlns="http://www.w3.org/2000/svg" p-id="6351" xmlns:xlink="http://www.w3.org/1999/xlink" width="200" height="200"><path d="M192 128a64 64 0 0 0-64 64v640a64 64 0 0 0 64 64h640a64 64 0 0 0 64-64v-640a64 64 0 0 0-64-64h-640m0-128h640a192 192 0 0 1 192 192v640a192 192 0 0 1-192 192h-640a192 192 0 0 1-192-192v-640a192 192 0 0 1 192-192z" fill="#636262" p-id="6352"></path><path d="M224 467.2m64 0l0 0q64 0 64 64l0 192q0 64-64 64l0 0q-64 0-64-64l0-192q0-64 64-64Z" fill="#636262" p-id="6353"></path><path d="M797.952 554.752m-64 0l0 0q-64 0-64-64l0-192q0-64 64-64l0 0q64 0 64 64l0 192q0 64-64 64Z" fill="#636262" p-id="6354"></path><path d="M554.752 669.952m0 64l0 0q0 64-64 64l-192 0q-64 0-64-64l0 0q0-64 64-64l192 0q64 0 64 64Z" fill="#636262" p-id="6355"></path><path d="M467.2 352m0-64l0 0q0-64 64-64l192 0q64 0 64 64l0 0q0 64-64 64l-192 0q-64 0-64-64Z" fill="#636262" p-id="6356"></path></svg>