<svg width="24" height="24" viewBox="0 0 24 24" fill="none" xmlns="http://www.w3.org/2000/svg">
<path d="M6.12316 6.12881L6.12318 6.12882L6.12661 6.12543C6.35407 5.90079 6.74387 5.72917 7.42507 5.72917H16.5749C17.2638 5.72917 17.65 5.90191 17.87 6.12207L17.87 6.12208L17.8734 6.12542C18.0985 6.34769 18.2708 6.72931 18.2708 7.40251V16.6055C18.2708 17.2794 18.0982 17.6555 17.8768 17.8712L17.8768 17.8711L17.87 17.8779C17.65 18.0981 17.2638 18.2708 16.5749 18.2708H7.42507C6.74144 18.2708 6.35033 18.1006 6.12316 17.8792C5.90269 17.6643 5.72917 17.2864 5.72917 16.6055V7.40251C5.72917 6.72156 5.90269 6.34367 6.12316 6.12881Z" stroke="black" stroke-width="1.45833"/>
</svg>
