<svg width="24" height="24" viewBox="0 0 24 24" fill="none" xmlns="http://www.w3.org/2000/svg">
<path d="M4.31437 7.32922L4.31438 7.32923L4.31779 7.32571C4.65072 6.98254 5.19499 6.75 6.08718 6.75H17.9128C18.805 6.75 19.3493 6.98254 19.6822 7.32571L19.6822 7.32572L19.6856 7.32922C20.0187 7.66807 20.25 8.23578 20.25 9.17217V14.8278C20.25 15.7728 20.0179 16.3432 19.6856 16.6812C19.3532 17.0195 18.8076 17.25 17.9128 17.25H6.08718C5.19238 17.25 4.64684 17.0195 4.31437 16.6812C3.98213 16.3432 3.75 15.7728 3.75 14.8278V9.17217C3.75 8.23578 3.98131 7.66807 4.31437 7.32922Z" stroke="black" stroke-width="1.5"/>
</svg>
