<svg width="24" height="24" viewBox="0 0 24 24" fill="none" xmlns="http://www.w3.org/2000/svg">
<path d="M7.22105 5.22879L7.22106 5.2288L7.22452 5.22533C7.49886 4.94963 7.96015 4.75 8.74416 4.75H15.2558C16.0398 4.75 16.5011 4.94963 16.7755 5.22533L16.7755 5.22534L16.779 5.22879C17.0501 5.49777 17.25 5.95757 17.25 6.74906V17.2509C17.25 18.0501 17.0493 18.5121 16.779 18.7803C16.505 19.052 16.0424 19.25 15.2558 19.25H8.74416C7.95764 19.25 7.49503 19.052 7.22105 18.7803C6.95072 18.5121 6.75 18.0501 6.75 17.2509V6.74906C6.75 5.95757 6.94987 5.49777 7.22105 5.22879Z" stroke="black" stroke-width="1.5"/>
</svg>
