<svg width="24" height="24" viewBox="0 0 24 24" fill="none" xmlns="http://www.w3.org/2000/svg">
<path d="M5.22105 7.22879L5.22106 7.2288L5.22452 7.22533C5.49886 6.94963 5.96015 6.75 6.74416 6.75H17.2558C18.0398 6.75 18.5011 6.94963 18.7755 7.22533L18.7755 7.22534L18.779 7.22879C19.0501 7.49777 19.25 7.95757 19.25 8.74906V15.2509C19.25 16.0501 19.0493 16.5121 18.779 16.7803C18.505 17.052 18.0424 17.25 17.2558 17.25H6.74416C5.95764 17.25 5.49503 17.052 5.22105 16.7803C4.95072 16.5121 4.75 16.0501 4.75 15.2509V8.74906C4.75 7.95757 4.94987 7.49777 5.22105 7.22879Z" stroke="black" stroke-width="1.5"/>
</svg>
