<svg width="24" height="24" viewBox="0 0 24 24" fill="none" xmlns="http://www.w3.org/2000/svg">
<path d="M7.32183 4.32131L7.32184 4.32132L7.3254 4.31786C7.67298 3.98018 8.24362 3.75 9.16942 3.75H14.8306C15.7658 3.75 16.3327 3.98132 16.6711 4.31444L16.6711 4.31445L16.6746 4.31786C17.0175 4.65103 17.25 5.19588 17.25 6.08894V17.9213C17.25 18.8151 17.0173 19.3536 16.6782 19.6787L16.6781 19.6786L16.6711 19.6856C16.3327 20.0187 15.7658 20.25 14.8306 20.25H9.16942C8.24119 20.25 7.66916 20.022 7.32183 19.689C6.98366 19.3647 6.75 18.8237 6.75 17.9213V6.08894C6.75 5.18655 6.98366 4.64553 7.32183 4.32131Z" stroke="black" stroke-width="1.5"/>
</svg>
